<svg width="426" height="489" viewBox="0 0 426 489" fill="none" xmlns="http://www.w3.org/2000/svg"><mask id="a" maskUnits="userSpaceOnUse" x="0" y="0" width="426" height="489"><path fill="#C4C4C4" d="M0 0h426v489H0z"/></mask><g mask="url(#a)"><path d="M164.667 78.37L33.764 225.035-27.802 38.338l192.469 40.031z" fill="#BA1F33"/><path d="M404.918 128.393l4.899 1.019-.102.489 1.602.333-1.09 1.221.373.333-3.331 3.733-.373-.333-3.332 3.733.373.333-3.332 3.733-.373-.333-3.332 3.733.373.333-3.332 3.733-.373-.333-3.332 3.733.373.333-3.331 3.733-.374-.333-3.331 3.733.373.333-3.332 3.733-.373-.332-3.332 3.733.373.333-3.332 3.733-.373-.333-3.332 3.733.373.333-3.332 3.733-.373-.333-3.331 3.733.373.333-3.332 3.733-.373-.333-3.332 3.733.373.333-3.332 3.733-.373-.333-3.332 3.733.373.333-3.332 3.733-.373-.333-3.331 3.733.373.333-3.332 3.733-.373-.333-3.332 3.733.373.333-3.332 3.733-.373-.333-3.332 3.734.373.332-3.332 3.734-.373-.333-3.331 3.733.373.333-3.332 3.733-.373-.333-3.332 3.733.373.333-3.332 3.733-.373-.333-3.332 3.733.373.333-3.332 3.733-.373-.333-3.331 3.733.373.333-3.332 3.733-.373-.333-3.332 3.733.373.333-3.332 3.733-.373-.333-3.332 3.733.373.333-3.332 3.733-.373-.333-3.331 3.734.373.332-3.332 3.734-.373-.333-3.332 3.733.373.333-3.332 3.733-.373-.333-3.332 3.733.373.333-3.332 3.733-.373-.333-3.332 3.733.374.333-3.332 3.733-.373-.333-3.332 3.733.373.333-3.332 3.733-.373-.333-3.332 3.733.373.333-3.332 3.733-.373-.333-3.332 3.734.373.332-3.331 3.734-.373-.333-3.332 3.733.373.333-3.332 3.733-.373-.333-3.332 3.733.373.333-3.332 3.733-.373-.333-3.332 3.733.373.333-3.331 3.733-.374-.333-3.331 3.733.373.333-3.332 3.733-.373-.333-3.332 3.733.373.333-3.332 3.733-.373-.333-3.332 3.733.373.333-3.332 3.734-.373-.333-3.331 3.733.373.333-3.332 3.733-.373-.333-3.332 3.733.373.333-3.332 3.733-.373-.333-3.332 3.733.373.333-3.332 3.733-.373-.333-3.331 3.733.373.333-3.332 3.733-.373-.333-3.332 3.733.373.333-3.332 3.733-.373-.333-3.332 3.733.373.333-3.332 3.733-.373-.333-3.332 3.734.374.332-3.332 3.734-.373-.333-3.332 3.733.373.333-3.332 3.733-.373-.333-3.332 3.733.373.333-3.332 3.733-.373-.333-3.332 3.733.373.333-3.331 3.733-.373-.333-3.332 3.733.373.333-3.332 3.733-.373-.333-3.332 3.733.373.333-3.332 3.733-.373-.333-3.332 3.733.373.333-3.331 3.733-.373-.332-1.09 1.22-.512-1.554-.475.157-1.567-4.752.475-.157-1.567-4.752-.475.157-1.567-4.752.475-.157-1.567-4.752-.475.157-1.567-4.752.475-.157-1.567-4.752-.475.157-1.567-4.752.475-.157-1.567-4.752-.475.157-1.567-4.752.475-.157-1.567-4.752-.475.157-1.567-4.752.475-.157-1.567-4.752-.475.157-1.567-4.752.475-.157-1.567-4.752-.475.157-1.567-4.752.475-.157-1.567-4.752-.475.157-1.567-4.752.475-.157-1.567-4.752-.475.157-1.567-4.752.475-.157-1.567-4.752-.475.157-1.567-4.752.475-.157-1.567-4.752-.475.157-1.567-4.752.475-.157-1.567-4.752-.475.157-1.567-4.752.475-.157-1.567-4.752-.475.157-1.567-4.752.474-.157-1.566-4.752-.475.157-1.567-4.752.474-.157-1.567-4.752-.474.157-1.567-4.752.474-.156-1.567-4.752-.474.156-1.567-4.752.474-.156-1.567-4.752-.474.156-1.567-4.752.474-.156-1.567-4.752-.474.156-1.567-4.752.474-.156-1.567-4.752-.474.156-1.567-4.752.474-.156-1.567-4.752-.475.156-1.567-4.752.475-.156-1.567-4.752-.475.156-1.567-4.752.475-.156-1.567-4.752-.475.156-1.567-4.752.475-.156-1.567-4.752-.475.156-1.567-4.752.475-.156-1.567-4.752-.475.156-1.567-4.752.475-.156-1.567-4.752-.475.156-1.567-4.752.475-.156-1.567-4.752-.475.156-1.567-4.752.475-.156-1.567-4.752-.475.156-1.567-4.752.475-.156-1.567-4.752-.475.156-1.567-4.752.475-.156-1.567-4.753-.475.157-1.567-4.752.475-.156-1.567-4.753-.475.157-1.567-4.752.475-.157-1.567-4.752-.475.157-1.567-4.752.475-.157-1.567-4.752-.475.157-1.567-4.752.475-.157-1.567-4.751-.475.156-1.567-4.752.475-.156-1.567-4.753-.475.157-1.567-4.752.475-.156-1.567-4.752-.475.156-1.567-4.752.475-.156-1.567-4.752-.475.156-1.567-4.752.475-.156-1.567-4.752-.475.156-1.567-4.752.475-.156-1.567-4.752-.475.156-1.567-4.752.475-.156-1.567-4.752-.475.156-1.567-4.752.474-.157-1.567-4.751-.474.156-1.567-4.752.475-.156-1.568-4.752-.474.156-1.567-4.752.474-.156-1.567-4.752-.474.156-1.567-4.752.474-.156-1.567-4.752-.474.156-1.567-4.752.474-.157-1.567-4.752-.474.157-1.567-4.752.474-.157-.512-1.553 1.602.333.102-.49 4.899 1.02-.102.49 4.899 1.018.101-.49 4.9 1.02-.103.489 4.9 1.019.101-.49 4.899 1.02-.102.489L3.11 45.33l.102-.49 4.899 1.02-.102.489 4.899 1.018.101-.489 4.9 1.019-.102.49 4.898 1.018.102-.49 4.899 1.02-.102.49 4.9 1.018.1-.49 4.9 1.02-.102.49 4.899 1.018.102-.49 4.898 1.02-.101.489 4.898 1.019.102-.49 4.9 1.02-.103.489 4.9 1.019.101-.49 4.899 1.02-.102.489 4.899 1.019.102-.49 4.898 1.019-.101.49 4.899 1.018.101-.49 4.9 1.02-.102.49 4.898 1.018.102-.49 4.899 1.02-.102.49 4.899 1.018.102-.49 4.899 1.02-.102.489 4.899 1.019.101-.49 4.899 1.02-.101.489 4.898 1.019.102-.49 4.899 1.02-.102.489 4.899 1.019.102-.49 4.899 1.019-.102.49 4.899 1.018.102-.49 4.898 1.02-.101.49 4.898 1.018.102-.49 4.899 1.02-.102.49 4.899 1.018.102-.49 4.899 1.02-.102.489 4.899 1.019.102-.49 4.899 1.02-.102.489 4.899 1.019.101-.49 4.899 1.02-.101.489 4.898 1.019.102-.49 4.899 1.019-.102.49 4.899 1.019.102-.49 4.899 1.019-.102.49 4.899 1.018.102-.49 4.899 1.02-.102.49 4.899 1.018.101-.49 4.899 1.02-.102.49 4.899 1.018.102-.49 4.899 1.02-.102.489 4.899 1.019.102-.49 4.899 1.02-.102.489 4.899 1.019.102-.49 4.898 1.02-.101.489 4.899 1.019.101-.49 4.899 1.019-.102.49 4.899 1.018.102-.49 4.899 1.02-.102.489 4.899 1.019.102-.489 4.899 1.019-.102.489 4.899 1.019.102-.489 4.898 1.019-.101.489 4.898 1.019.102-.49 4.899 1.019-.102.49 4.899 1.019.102-.49 4.899 1.019-.102.49 4.899 1.019.102-.49 4.899 1.019-.102.49 4.899 1.018.101-.489 4.899 1.019-.102.489 4.899 1.019.102-.489 4.899 1.019-.102.489 4.899 1.019.102-.489 4.899 1.019-.102.489 4.899 1.019.102-.49 4.898 1.019-.101.49 4.898 1.019.102-.49 4.899 1.019-.102.49 4.899 1.019.102-.49 4.899 1.019-.102.49 4.899 1.019.102-.49 4.899 1.019-.102.489 4.899 1.019.101-.489 4.899 1.019-.102.489 4.899 1.019.102-.489z" stroke="#FFB20F" stroke-dasharray="5 5"/></g></svg>